<?xml version="1.0" encoding="utf-8"?>
<!-- Generator: Adobe Illustrator 19.1.0, SVG Export Plug-In . SVG Version: 6.00 Build 0)  -->
<svg xmlns="http://www.w3.org/2000/svg" viewBox="0 0 76.5 56.4">
  <style>.st0{fill:#546E7A;} .st1{fill:#B2D4F0;} .st2{fill:#65C297;} .st3{fill:#FFFFFF;} .st4{fill:#CEF8EC;} .st5{fill:#F5FEFB;} .st6{fill:#7E62B0;} .st7{fill:#EEE7FB;} .st8{fill:#FCFAFE;}</style>
  <g id="PC_1">
    <path class="st0" d="M55.6 42.9H3.5c-1.1 0-2-.9-2-2V2.5c0-1.1.9-2 2-2h52.1c1.1 0 2 .9 2 2v38.3c0 1.2-.9 2.1-2 2.1z"/>
    <path class="st1" d="M5.7 4.8h47.6v28.3H5.7z"/>
  </g>
  <g id="Phone_1">
    <path class="st2" d="M31.9 55.1c-1.5 0-2.8-1.3-2.8-2.8V30.9c0-1.5 1.3-2.8 2.8-2.8h12.4c1.5 0 2.8 1.3 2.8 2.8v21.4c0 1.5-1.3 2.8-2.8 2.8H31.9z"/>
    <path class="st3" d="M44.4 28.9c1.1 0 2 .9 2 2v21.4c0 1.1-.9 2-2 2H31.9c-1.1 0-2-.9-2-2V30.9c0-1.1.9-2 2-2h12.5m0-1.6H31.9c-2 0-3.6 1.6-3.6 3.6v21.4c0 2 1.6 3.6 3.6 3.6h12.4c2 0 3.6-1.6 3.6-3.6V30.9c.1-2-1.5-3.6-3.5-3.6z"/>
    <path class="st4" d="M31.7 31.4h12.9v17.8H31.7z"/>
    <circle class="st5" cx="38.2" cy="51.7" r="1.3"/>
  </g>
  <g id="Tablet_1">
    <path class="st6" d="M52.7 55.1c-2.4 0-4.4-2-4.4-4.4V18.9c0-2.4 2-4.4 4.4-4.4H71c2.4 0 4.4 2 4.4 4.4v31.7c0 2.4-2 4.4-4.4 4.4H52.7z"/>
    <path class="st3" d="M71 15.3c2 0 3.6 1.6 3.6 3.6v31.7c0 2-1.6 3.6-3.6 3.6H52.7c-2 0-3.6-1.6-3.6-3.6V18.9c0-2 1.6-3.6 3.6-3.6H71m0-1.6H52.7c-2.9 0-5.2 2.3-5.2 5.2v31.7c0 2.9 2.3 5.2 5.2 5.2H71c2.9 0 5.2-2.3 5.2-5.2V18.9c0-2.8-2.3-5.2-5.2-5.2z"/>
    <path class="st7" d="M51.9 19.9h19.8v28.8H51.9z"/>
    <path class="st8" d="M65.2 18.2h-6.8c-.2 0-.4-.2-.4-.4v-.2c0-.2.2-.4.4-.4h6.8c.2 0 .4.2.4.4v.2c0 .2-.2.4-.4.4zM63.3 52.7h-3c-.3 0-.6-.3-.6-.6v-1.6c0-.3.3-.6.6-.6h3c.3 0 .6.3.6.6v1.6c0 .3-.3.6-.6.6z"/>
  </g>
</svg>