<svg id="Money" xmlns="http://www.w3.org/2000/svg" viewBox="0 0 76.5 56.4">
  <style>.st10{fill:#EB8213;} .st11{fill:#FFFFFF;} .st12{fill:#FAD493;} .st13{fill:#CC7816;}</style>
  <g id="Back">
    <path class="st10" d="M23.6 49.2c-2.9 0-5.4-2-6-4.9L13 22.2c-.3-1.6 0-3.2.9-4.6.9-1.4 2.3-2.3 3.9-2.7l45.5-9.6c.4-.1.8-.1 1.3-.1 2.9 0 5.4 2 6 4.9l4.7 22.2c.3 1.6 0 3.2-.9 4.6-.9 1.4-2.3 2.3-3.9 2.7L25 49.2h-1.4z"/>
    <path class="st11" d="M64.4 6.3c2.3 0 4.5 1.6 5 4l4.7 22.2c.6 2.7-1.2 5.4-3.9 6l-45.5 9.6c-.3.1-.7.1-1 .1-2.3 0-4.5-1.6-5-4L14 21.9c-.6-2.7 1.2-5.4 3.9-6l45.5-9.6h1m0-2.2c-.5 0-1 .1-1.5.2l-45.5 9.6c-3.9.8-6.4 4.6-5.6 8.5l4.7 22.2c.7 3.3 3.7 5.7 7 5.7.5 0 1-.1 1.5-.2l45.5-9.6c3.9-.8 6.4-4.6 5.6-8.5L71.5 9.9c-.7-3.4-3.7-5.8-7.1-5.8z"/>
    <path class="st12" d="M69.2 28.7l-2.7-12.9c-3.1.6-6.1-1.3-6.8-4.4L23.2 19c.6 3.1-1.3 6.1-4.4 6.8l2.7 12.9c3.1-.6 6.1 1.3 6.8 4.4l36.5-7.7c-.6-3.1 1.3-6.1 4.4-6.7z"/>
    <path class="st13" d="M36.4 28.3L38 28l-1.7-7.9 7.6-1.6c3.2-.7 5.3.1 6 3.5.7 3.4-.9 6.3-4.7 7.1l-2.5.5.2 1 6.9-1.4.5 2.6-6.9 1.4.6 3-4.3.9-.6-3-1.6.3-.5-2.6 1.6-.3-.2-1-1.6.3-.4-2.5zm5.8-1.2c1.6-.3 3.8-1 3.3-3.8-.3-1.6-1.6-1.8-3-1.5-.4.1-.9.3-1.3.4l1 4.9z"/>
  </g>
  <g id="Front">
    <path class="st10" d="M7.6 54.3c-3.4 0-6.1-2.7-6.1-6.1V25.5c0-3.4 2.7-6.1 6.1-6.1h46.5c3.4 0 6.1 2.7 6.1 6.1v22.7c0 3.4-2.7 6.1-6.1 6.1H7.6z"/>
    <path class="st11" d="M54.1 20.4c2.8 0 5.1 2.3 5.1 5.1v22.7c0 2.8-2.3 5.1-5.1 5.1H7.6c-2.8 0-5.1-2.3-5.1-5.1V25.5c0-2.8 2.3-5.1 5.1-5.1h46.5m0-2.1H7.6c-4 0-7.2 3.2-7.2 7.2v22.7c0 4 3.2 7.2 7.2 7.2h46.5c4 0 7.2-3.2 7.2-7.2V25.5c0-4-3.3-7.2-7.2-7.2z"/>
    <path class="st12" d="M54.9 43.4V30.2c-3.2 0-5.7-2.6-5.7-5.7H11.9c0 3.2-2.6 5.7-5.7 5.7v13.2c3.2 0 5.7 2.6 5.7 5.7h37.3c0-3.1 2.6-5.7 5.7-5.7z"/>
    <path class="st13" d="M23.7 36.4h1.6v-8.1h7.8c3.3 0 5.2 1.2 5.2 4.6 0 3.5-2.2 6-6.1 6h-2.6v1h7v2.6h-7v3.1h-4.4v-3.1h-1.6V40h1.6v-1h-1.6v-2.6zm5.9 0c1.6 0 4-.2 4-3.1 0-1.6-1.2-2.1-2.6-2.1-.5 0-.9.1-1.4.2v5z"/>
  </g>
</svg>