<svg id="shipping_svg" xmlns="http://www.w3.org/2000/svg" viewBox="0 0 76.5 56.4">
  <g id="Auto">
        <path class="st14" d="M65.6 45.5c-6.6 0-14.4-.1-14.4-.1-.6 0-1.1-.5-1.1-1.1V21.8c0-.6.5-1.1 1.1-1.1.1 0 1.6-.1 3.4-.1 2.5 0 4.2.2 5.1.6 1.9.8 9.8 6.7 14.7 11.6.2.2.3.5.3.7.1 2.1 0 5.1 0 7.7v3.1c0 .6-.5 1.1-1.1 1.1-1.5.1-4.2.1-8 .1z"/>
        <path class="st14" d="M54.5 21.7c1.8 0 3.8.1 4.7.5 1.6.7 9.5 6.4 14.3 11.4.1 3 0 7.9 0 10.7-1.6 0-4.6.1-7.9.1-6.6 0-14.4-.1-14.4-.1V21.8s1.5-.1 3.3-.1m0-2.2c-1.8 0-3.4.1-3.4.1-1.2.1-2.1 1.1-2.1 2.3v22.5c0 1.2 1 2.3 2.2 2.3.1 0 7.9.1 14.4.1 3.9 0 6.5 0 7.9-.1 1.2 0 2.2-1 2.2-2.3v-3.1c0-2.6.1-5.6 0-7.7 0-.6-.3-1.1-.6-1.5C70.2 27 62 21 60 20.1c-.6-.3-1.9-.6-5.5-.6z"/>
        <path class="st15" d="M55.2 32.9c-.2 0-.3-.2-.3-.3v-8.8c0-.2.2-.3.3-.3.1 0 2.3 0 3.5.4 2.2.7 9.7 8.2 10 8.5.1.1.1.2.1.4-.1.1-.2.2-.3.2H55.2z"/>
        <path class="st15" d="M55.2 23.7s2.3 0 3.4.4c2.1.7 9.9 8.4 9.9 8.4H55.2v-8.8m0-.7c-.4 0-.7.3-.7.7v8.8c0 .4.3.7.7.7h13.3c.3 0 .5-.2.6-.4.1-.3 0-.6-.2-.7-.8-.8-8-7.9-10.2-8.6-1.1-.4-3.4-.5-3.5-.5z"/>
        <path class="st16" d="M8.1 47c-2.4 0-4.4-2-4.4-4.4V16.2c0-2.4 2-4.4 4.4-4.4h37.5c2.4 0 4.4 2 4.4 4.4V47H8.1z"/>
        <path class="st17" d="M45.6 12.6c2 0 3.6 1.6 3.6 3.6v30H8.1c-2 0-3.6-1.6-3.6-3.6V16.2c0-2 1.6-3.6 3.6-3.6h37.5m0-1.6H8.1c-2.8 0-5.2 2.3-5.2 5.2v26.4c0 2.8 2.3 5.2 5.2 5.2h42.7V16.2c0-2.9-2.4-5.2-5.2-5.2z"/>
        <path class="st18" d="M4.2 24.8l45.4 5.4"/>
        <path class="st19" d="M3.4 27l46.2 5.4"/>
        <g>
          <path class="st20" d="M22 54.2c-3.7 0-6.6-3-6.6-6.6 0-3.7 3-6.6 6.6-6.6s6.6 3 6.6 6.6c0 3.6-3 6.6-6.6 6.6z"/>
          <path class="st17" d="M22 41.7c3.2 0 5.9 2.6 5.9 5.9s-2.6 5.9-5.9 5.9-5.9-2.6-5.9-5.9 2.6-5.9 5.9-5.9m0-1.6c-4.1 0-7.4 3.3-7.4 7.4s3.3 7.4 7.4 7.4 7.4-3.3 7.4-7.4-3.3-7.4-7.4-7.4z"/>
        </g>
        <g>
          <path class="st20" d="M62 54.2c-3.7 0-6.6-3-6.6-6.6 0-3.7 3-6.6 6.6-6.6 3.7 0 6.6 3 6.6 6.6.1 3.6-2.9 6.6-6.6 6.6z"/>
          <path class="st17" d="M62 41.7c3.2 0 5.9 2.6 5.9 5.9s-2.6 5.9-5.9 5.9c-3.2 0-5.9-2.6-5.9-5.9s2.7-5.9 5.9-5.9m0-1.6c-4.1 0-7.4 3.3-7.4 7.4s3.3 7.4 7.4 7.4 7.4-3.3 7.4-7.4-3.3-7.4-7.4-7.4z"/>
        </g>
      </g>
</svg>