<?xml version="1.0" encoding="utf-8"?>
<svg xmlns="http://www.w3.org/2000/svg" viewBox="0 0 76.5 56.4">
  <style>.st0{fill:#546E7A;} .st1{fill:#B2D4F0;} .st2{fill:#65C297;} .st3{fill:#FFFFFF;} .st4{fill:#CEF8EC;} .st5{fill:#F5FEFB;} .st6{fill:#7E62B0;} .st7{fill:#EEE7FB;} .st8{fill:#FCFAFE;}
  .st10{fill:#EB8213;} .st11{fill:#FFFFFF;} .st12{fill:#FAD493;} .st13{fill:#CC7816;}
.st14{fill:#7F62AB;} .st15{fill:#EEE7FB;} .st16{fill:#4CAF50;} .st17{fill:#FFFFFF;} .st18{fill:none;stroke:#FFFFFF;stroke-width:1.5817;stroke-miterlimit:10;} .st19{fill:none;stroke:#FFFFFF;stroke-width:0.7909;stroke-miterlimit:10;} .st20{fill:#607D8A;}</style>
  <g id="PC_1">
    <path class="st0" d="M55.6 42.9H3.5c-1.1 0-2-.9-2-2V2.5c0-1.1.9-2 2-2h52.1c1.1 0 2 .9 2 2v38.3c0 1.2-.9 2.1-2 2.1z"/>
    <path class="st1" d="M5.7 4.8h47.6v28.3H5.7z"/>
  </g>
  <g id="Phone_1">
    <path class="st2" d="M31.9 55.1c-1.5 0-2.8-1.3-2.8-2.8V30.9c0-1.5 1.3-2.8 2.8-2.8h12.4c1.5 0 2.8 1.3 2.8 2.8v21.4c0 1.5-1.3 2.8-2.8 2.8H31.9z"/>
    <path class="st3" d="M44.4 28.9c1.1 0 2 .9 2 2v21.4c0 1.1-.9 2-2 2H31.9c-1.1 0-2-.9-2-2V30.9c0-1.1.9-2 2-2h12.5m0-1.6H31.9c-2 0-3.6 1.6-3.6 3.6v21.4c0 2 1.6 3.6 3.6 3.6h12.4c2 0 3.6-1.6 3.6-3.6V30.9c.1-2-1.5-3.6-3.5-3.6z"/>
    <path class="st4" d="M31.7 31.4h12.9v17.8H31.7z"/>
    <circle class="st5" cx="38.2" cy="51.7" r="1.3"/>
  </g>
  <g id="Tablet_1">
    <path class="st6" d="M52.7 55.1c-2.4 0-4.4-2-4.4-4.4V18.9c0-2.4 2-4.4 4.4-4.4H71c2.4 0 4.4 2 4.4 4.4v31.7c0 2.4-2 4.4-4.4 4.4H52.7z"/>
    <path class="st3" d="M71 15.3c2 0 3.6 1.6 3.6 3.6v31.7c0 2-1.6 3.6-3.6 3.6H52.7c-2 0-3.6-1.6-3.6-3.6V18.9c0-2 1.6-3.6 3.6-3.6H71m0-1.6H52.7c-2.9 0-5.2 2.3-5.2 5.2v31.7c0 2.9 2.3 5.2 5.2 5.2H71c2.9 0 5.2-2.3 5.2-5.2V18.9c0-2.8-2.3-5.2-5.2-5.2z"/>
    <path class="st7" d="M51.9 19.9h19.8v28.8H51.9z"/>
    <path class="st8" d="M65.2 18.2h-6.8c-.2 0-.4-.2-.4-.4v-.2c0-.2.2-.4.4-.4h6.8c.2 0 .4.2.4.4v.2c0 .2-.2.4-.4.4zM63.3 52.7h-3c-.3 0-.6-.3-.6-.6v-1.6c0-.3.3-.6.6-.6h3c.3 0 .6.3.6.6v1.6c0 .3-.3.6-.6.6z"/>
  </g>
  <g id="Back">
      <path class="st10" d="M23.6 49.2c-2.9 0-5.4-2-6-4.9L13 22.2c-.3-1.6 0-3.2.9-4.6.9-1.4 2.3-2.3 3.9-2.7l45.5-9.6c.4-.1.8-.1 1.3-.1 2.9 0 5.4 2 6 4.9l4.7 22.2c.3 1.6 0 3.2-.9 4.6-.9 1.4-2.3 2.3-3.9 2.7L25 49.2h-1.4z"/>
      <path class="st11" d="M64.4 6.3c2.3 0 4.5 1.6 5 4l4.7 22.2c.6 2.7-1.2 5.4-3.9 6l-45.5 9.6c-.3.1-.7.1-1 .1-2.3 0-4.5-1.6-5-4L14 21.9c-.6-2.7 1.2-5.4 3.9-6l45.5-9.6h1m0-2.2c-.5 0-1 .1-1.5.2l-45.5 9.6c-3.9.8-6.4 4.6-5.6 8.5l4.7 22.2c.7 3.3 3.7 5.7 7 5.7.5 0 1-.1 1.5-.2l45.5-9.6c3.9-.8 6.4-4.6 5.6-8.5L71.5 9.9c-.7-3.4-3.7-5.8-7.1-5.8z"/>
      <path class="st12" d="M69.2 28.7l-2.7-12.9c-3.1.6-6.1-1.3-6.8-4.4L23.2 19c.6 3.1-1.3 6.1-4.4 6.8l2.7 12.9c3.1-.6 6.1 1.3 6.8 4.4l36.5-7.7c-.6-3.1 1.3-6.1 4.4-6.7z"/>
      <path class="st13" d="M36.4 28.3L38 28l-1.7-7.9 7.6-1.6c3.2-.7 5.3.1 6 3.5.7 3.4-.9 6.3-4.7 7.1l-2.5.5.2 1 6.9-1.4.5 2.6-6.9 1.4.6 3-4.3.9-.6-3-1.6.3-.5-2.6 1.6-.3-.2-1-1.6.3-.4-2.5zm5.8-1.2c1.6-.3 3.8-1 3.3-3.8-.3-1.6-1.6-1.8-3-1.5-.4.1-.9.3-1.3.4l1 4.9z"/>
    </g>
    <g id="Front">
      <path class="st10" d="M7.6 54.3c-3.4 0-6.1-2.7-6.1-6.1V25.5c0-3.4 2.7-6.1 6.1-6.1h46.5c3.4 0 6.1 2.7 6.1 6.1v22.7c0 3.4-2.7 6.1-6.1 6.1H7.6z"/>
      <path class="st11" d="M54.1 20.4c2.8 0 5.1 2.3 5.1 5.1v22.7c0 2.8-2.3 5.1-5.1 5.1H7.6c-2.8 0-5.1-2.3-5.1-5.1V25.5c0-2.8 2.3-5.1 5.1-5.1h46.5m0-2.1H7.6c-4 0-7.2 3.2-7.2 7.2v22.7c0 4 3.2 7.2 7.2 7.2h46.5c4 0 7.2-3.2 7.2-7.2V25.5c0-4-3.3-7.2-7.2-7.2z"/>
      <path class="st12" d="M54.9 43.4V30.2c-3.2 0-5.7-2.6-5.7-5.7H11.9c0 3.2-2.6 5.7-5.7 5.7v13.2c3.2 0 5.7 2.6 5.7 5.7h37.3c0-3.1 2.6-5.7 5.7-5.7z"/>
      <path class="st13" d="M23.7 36.4h1.6v-8.1h7.8c3.3 0 5.2 1.2 5.2 4.6 0 3.5-2.2 6-6.1 6h-2.6v1h7v2.6h-7v3.1h-4.4v-3.1h-1.6V40h1.6v-1h-1.6v-2.6zm5.9 0c1.6 0 4-.2 4-3.1 0-1.6-1.2-2.1-2.6-2.1-.5 0-.9.1-1.4.2v5z"/>
    </g>
    <g id="Auto">
      <path class="st14" d="M65.6 45.5c-6.6 0-14.4-.1-14.4-.1-.6 0-1.1-.5-1.1-1.1V21.8c0-.6.5-1.1 1.1-1.1.1 0 1.6-.1 3.4-.1 2.5 0 4.2.2 5.1.6 1.9.8 9.8 6.7 14.7 11.6.2.2.3.5.3.7.1 2.1 0 5.1 0 7.7v3.1c0 .6-.5 1.1-1.1 1.1-1.5.1-4.2.1-8 .1z"/>
      <path class="st14" d="M54.5 21.7c1.8 0 3.8.1 4.7.5 1.6.7 9.5 6.4 14.3 11.4.1 3 0 7.9 0 10.7-1.6 0-4.6.1-7.9.1-6.6 0-14.4-.1-14.4-.1V21.8s1.5-.1 3.3-.1m0-2.2c-1.8 0-3.4.1-3.4.1-1.2.1-2.1 1.1-2.1 2.3v22.5c0 1.2 1 2.3 2.2 2.3.1 0 7.9.1 14.4.1 3.9 0 6.5 0 7.9-.1 1.2 0 2.2-1 2.2-2.3v-3.1c0-2.6.1-5.6 0-7.7 0-.6-.3-1.1-.6-1.5C70.2 27 62 21 60 20.1c-.6-.3-1.9-.6-5.5-.6z"/>
      <path class="st15" d="M55.2 32.9c-.2 0-.3-.2-.3-.3v-8.8c0-.2.2-.3.3-.3.1 0 2.3 0 3.5.4 2.2.7 9.7 8.2 10 8.5.1.1.1.2.1.4-.1.1-.2.2-.3.2H55.2z"/>
      <path class="st15" d="M55.2 23.7s2.3 0 3.4.4c2.1.7 9.9 8.4 9.9 8.4H55.2v-8.8m0-.7c-.4 0-.7.3-.7.7v8.8c0 .4.3.7.7.7h13.3c.3 0 .5-.2.6-.4.1-.3 0-.6-.2-.7-.8-.8-8-7.9-10.2-8.6-1.1-.4-3.4-.5-3.5-.5z"/>
      <path class="st16" d="M8.1 47c-2.4 0-4.4-2-4.4-4.4V16.2c0-2.4 2-4.4 4.4-4.4h37.5c2.4 0 4.4 2 4.4 4.4V47H8.1z"/>
      <path class="st17" d="M45.6 12.6c2 0 3.6 1.6 3.6 3.6v30H8.1c-2 0-3.6-1.6-3.6-3.6V16.2c0-2 1.6-3.6 3.6-3.6h37.5m0-1.6H8.1c-2.8 0-5.2 2.3-5.2 5.2v26.4c0 2.8 2.3 5.2 5.2 5.2h42.7V16.2c0-2.9-2.4-5.2-5.2-5.2z"/>
      <path class="st18" d="M4.2 24.8l45.4 5.4"/>
      <path class="st19" d="M3.4 27l46.2 5.4"/>
      <g>
        <path class="st20" d="M22 54.2c-3.7 0-6.6-3-6.6-6.6 0-3.7 3-6.6 6.6-6.6s6.6 3 6.6 6.6c0 3.6-3 6.6-6.6 6.6z"/>
        <path class="st17" d="M22 41.7c3.2 0 5.9 2.6 5.9 5.9s-2.6 5.9-5.9 5.9-5.9-2.6-5.9-5.9 2.6-5.9 5.9-5.9m0-1.6c-4.1 0-7.4 3.3-7.4 7.4s3.3 7.4 7.4 7.4 7.4-3.3 7.4-7.4-3.3-7.4-7.4-7.4z"/>
      </g>
      <g>
        <path class="st20" d="M62 54.2c-3.7 0-6.6-3-6.6-6.6 0-3.7 3-6.6 6.6-6.6 3.7 0 6.6 3 6.6 6.6.1 3.6-2.9 6.6-6.6 6.6z"/>
        <path class="st17" d="M62 41.7c3.2 0 5.9 2.6 5.9 5.9s-2.6 5.9-5.9 5.9c-3.2 0-5.9-2.6-5.9-5.9s2.7-5.9 5.9-5.9m0-1.6c-4.1 0-7.4 3.3-7.4 7.4s3.3 7.4 7.4 7.4 7.4-3.3 7.4-7.4-3.3-7.4-7.4-7.4z"/>
      </g>
    </g>
</svg>